<?xml version="1.0" encoding="UTF-8" standalone="no"?>
<svg
   xmlns:dc="http://purl.org/dc/elements/1.1/"
   xmlns:cc="http://creativecommons.org/ns#"
   xmlns:rdf="http://www.w3.org/1999/02/22-rdf-syntax-ns#"
   xmlns:svg="http://www.w3.org/2000/svg"
   xmlns="http://www.w3.org/2000/svg"
   version="1.1"
   id="svg3343"
   viewBox="0 0 744.09448819 1052.3622047"
   height="297mm"
   width="210mm">
  <defs
     id="defs3345" />
  <metadata
     id="metadata3348">
    <rdf:RDF>
      <cc:Work
         rdf:about="">
        <dc:format>image/svg+xml</dc:format>
        <dc:type
           rdf:resource="http://purl.org/dc/dcmitype/StillImage" />
        <dc:title></dc:title>
      </cc:Work>
    </rdf:RDF>
  </metadata>
  <g
     id="layer1">
    <path
       style="fill:#fefefe"
       d="m 7.255313,377.13964 0,-368.3439683 364.334787,0 364.33482,0 0,368.3439683 0,368.34397 -364.33482,0 -364.334787,0 0,-368.34397 z"
       id="path3826" />
    <path
       style="fill:#e2e2e2"
       d="m 321.2247,744.77626 -2.25517,-0.43436 0,-45.46267 0,-45.46267 -5.26206,-0.50298 c -2.89413,-0.27664 -11.44378,-0.99231 -18.99923,-1.59038 C 189.21025,642.97213 92.016924,577.45097 42.704469,481.43929 20.212869,437.64802 9.2675903,394.89048 7.5642876,344.16502 l -0.6360574,-18.94247 15.5085008,0.52123 15.508534,0.5212 1.163132,-12.64996 C 49.638457,199.09249 127.15944,101.98783 236.28007,66.632992 c 21.18731,-6.864629 35.59649,-9.763738 66.46542,-13.372674 l 4.32304,-0.505391 -0.5375,-5.191161 c -0.29568,-2.855142 -0.814,-9.973151 -1.15194,-15.817776 l -0.61441,-10.626615 4.73659,-0.649221 c 11.46049,-1.570832 40.64981,0.02673 63.59231,3.483883 13.68121,2.060688 38.64163,8.026691 49.52754,11.838057 3.26021,1.141449 6.09978,1.903228 6.31016,1.692879 0.21048,-0.210482 0.88934,-5.769987 1.50886,-12.354708 l 1.12635,-11.972198 10.10368,-1.24669 c 5.557,-0.685704 12.02058,-1.50301 14.36344,-1.816295 l 4.25976,-0.5695714 0,20.5944544 0,20.594487 11.77699,6.22817 c 6.47734,3.425482 14.83552,8.201325 18.57372,10.61295 3.73823,2.411626 7.00823,4.38478 7.26665,4.38478 0.25859,0 0.46991,-14.039668 0.46991,-31.199285 l 0,-31.1992857 3.75861,0.5634577 c 2.06724,0.310044 8.15619,1.122104 13.53101,1.804802 7.69887,0.977941 9.77419,1.576713 9.78091,2.822066 0.0134,2.380053 3.87177,44.074085 4.51224,48.752772 0.55577,4.059802 0.58146,4.08095 7.79081,6.398995 3.97825,1.279131 11.09305,3.997927 15.81066,6.041743 l 8.57746,3.716081 13.97421,-12.923644 c 7.68581,-7.107987 16.76412,-15.410343 20.17403,-18.449707 l 6.1998,-5.526061 10.51129,7.052325 c 5.78118,3.878754 10.71344,7.403831 10.96054,7.833515 0.24724,0.429685 -3.77431,11.831543 -8.93647,25.337488 -5.1622,13.505946 -9.38885,24.830226 -9.39259,25.165026 -0.003,0.33483 3.26929,3.9431 7.27337,8.01837 5.5279,5.62619 18.69303,21.09323 19.27683,22.64736 0.0421,0.11192 11.96919,-2.93833 26.5049,-6.77806 14.53567,-3.83977 26.53242,-6.86296 26.65941,-6.71823 0.12696,0.14466 2.9968,5.50171 6.37738,11.90438 l 6.14649,11.64127 -18.76366,16.42303 c -10.32002,9.03269 -19.58875,17.09961 -20.5972,17.92651 -1.76725,1.44912 -1.74052,1.77513 0.74013,9.02066 1.41551,4.13448 3.6636,12.87003 4.99575,19.41235 1.33215,6.54232 2.59505,12.06808 2.80643,12.27947 0.21148,0.21148 12.18579,3.17464 26.60977,6.58505 l 26.22542,6.20074 0,13.2956 0,13.29563 -3.25746,0.89609 c -1.79161,0.49283 -13.76056,3.333 -26.59768,6.31146 -20.30034,4.71006 -23.38675,5.67644 -23.69749,7.41997 -1.59346,8.94011 -5.18846,24.33369 -7.07936,30.31345 l -2.29596,7.26064 11.35144,10.02898 c 10.84595,9.58239 11.55525,10.02898 15.92837,10.02898 l 4.57695,0 0,3.92399 c 0,3.40036 0.60823,4.45938 4.55771,7.93588 l 4.55771,4.01183 -6.14999,11.60893 c -4.1764,7.8835 -6.68438,11.58621 -7.81518,11.53817 -0.91586,-0.0388 -11.3624,-2.65194 -23.21455,-5.80674 l -21.54938,-5.73594 -0.28131,3.05039 c -1.74727,18.93899 -5.9923,40.71051 -11.9172,61.11971 -1.91021,6.58001 -3.2589,12.78278 -2.9971,13.78394 0.26193,1.00117 -0.19011,2.19303 -1.00404,2.64857 -0.81403,0.45555 -3.26605,5.30309 -5.44895,10.77232 -21.01575,52.65508 -57.84353,100.58543 -103.80284,135.09667 -46.75707,35.11025 -103.77661,57.15947 -159.77692,61.7851 -7.40073,0.6113 -16.27486,1.34619 -19.72025,1.63308 l -6.26436,0.52166 0,41.51552 0,41.51553 5.26206,-0.003 c 2.89413,-0.002 11.57652,-0.47081 19.29421,-1.04128 132.70733,-9.80918 250.09884,-82.4296 318.60066,-197.09189 9.10189,-15.23527 23.33209,-44.82009 30.04297,-62.45984 12.7598,-33.53965 21.28002,-71.03754 24.70978,-108.74918 1.27643,-14.03512 1.27716,-22.26474 0.002,-23.05282 -0.55127,-0.34071 -1.0023,-2.39696 -1.0023,-4.5695 0,-2.17251 0.45103,-3.95002 1.0023,-3.95002 0.55126,0 1.00229,-0.67655 1.00229,-1.50344 0,-1.12097 1.18636,-1.50345 4.66359,-1.50345 l 4.66359,0 -0.59724,18.79306 c -3.7532,118.10618 -62.84593,232.67629 -158.55649,307.41253 -56.83453,44.37962 -126.80301,73.62583 -198.97257,83.16873 -21.49956,2.84288 -49.63586,4.25979 -56.88036,2.86443 z m -2.49966,-238.58676 -0.25659,-78.92671 -6.01378,-0.74307 c -32.20813,-3.97962 -61.61558,-29.06032 -71.44824,-60.93595 -2.71445,-8.79973 -4.47268,-24.06053 -3.69186,-32.04403 1.52429,-15.58521 6.99102,-31.6154 14.58659,-42.77267 1.81088,-2.66002 6.44196,-8.10587 10.29131,-12.10189 3.84932,-3.99599 6.81031,-7.40838 6.57998,-7.58304 -0.23019,-0.17474 -5.83123,-1.55486 -12.44638,-3.0671 -6.61516,-1.51219 -13.71894,-3.19134 -15.78618,-3.73141 l -3.75861,-0.98192 0,-13.29403 0,-13.29406 24.80684,-5.75605 c 13.64376,-3.16582 25.82167,-6.17712 27.06201,-6.69177 1.30786,-0.54264 2.25516,-1.80453 2.25516,-3.00405 0,-4.36964 5.67414,-27.87887 8.46577,-35.0757 0.41455,-1.06871 -5.50795,-6.83676 -19.96314,-19.44241 l -20.55253,-17.92297 6.15701,-11.62871 c 3.38636,-6.39582 6.24003,-11.74391 6.34146,-11.88466 0.10124,-0.14066 12.07845,2.8693 26.61559,6.68902 l 26.43119,6.94495 1.50211,-2.14458 c 3.07267,-4.38685 13.72491,-16.43315 19.5251,-22.08039 l 5.9935,-5.83544 -2.37701,-6.85481 c -1.30736,-3.770135 -3.08761,-8.36072 -3.9561,-10.201304 l -1.57908,-3.346501 -17.28127,-0.274295 c -9.50467,-0.151013 -17.31012,-0.601879 -17.34544,-1.002297 -0.0354,-0.40045 -0.42213,-6.038702 -0.85967,-12.529475 -0.4375,-6.490772 -1.00634,-12.012289 -1.26409,-12.270013 -0.74314,-0.743136 -25.0937,2.327366 -36.26149,4.57241 -43.36249,8.717106 -86.19399,28.872755 -120.86216,56.875315 -51.057751,41.24099 -88.00347,104.37164 -98.666535,168.59563 -1.815828,10.93673 -3.601018,26.10939 -3.613046,30.70793 l -0.0067,3.14477 13.901586,0.71978 13.901619,0.71978 0.550628,18.18597 c 1.112783,36.75044 8.53529,66.27997 25.22987,100.37429 19.71999,40.27284 49.61218,73.98936 87.74011,98.96535 13.70346,8.97657 37.48131,20.65095 52.62056,25.83553 23.59477,8.08028 50.62607,13.32486 71.41971,13.85678 l 6.27044,0.16037 -0.25659,-78.92667 z m 32.32413,77.45587 c 56.20334,-6.60126 105.04565,-29.51312 145.04704,-68.04137 11.25184,-10.83746 24.94732,-26.42999 24.02478,-27.35257 -0.55133,-0.55133 -16.2625,1.25137 -19.98633,2.29322 -1.65563,0.46319 -1.75402,-2.6895 -1.75402,-56.18747 l 0,-56.6782 2.25517,-0.48832 c 27.58096,-5.97212 47.60307,-15.95088 65.08556,-32.43782 l 7.10748,-6.70276 -0.72659,-14.03215 c -0.39962,-7.71769 -1.25535,-17.64042 -1.90159,-22.05053 l -1.175,-8.01837 -84.52049,-0.25625 c -46.48624,-0.14099 -84.34586,0.0845 -84.13247,0.50115 10.77202,21.02814 13.84553,36.67656 11.48829,58.49115 l -0.82328,7.61885 7.83936,4.0588 c 9.29934,4.81467 21.96212,9.38277 32.48453,11.71879 l 7.60616,1.6886 0.66138,38.27319 c 0.36373,21.05027 0.66202,46.49327 0.66279,56.54005 l 10e-4,18.26686 -2.75632,-0.46614 c -1.51597,-0.25625 -7.90247,-1.14399 -14.19221,-1.97252 -6.28975,-0.82856 -11.5356,-1.62235 -11.65748,-1.76401 -0.12195,-0.14165 -1.20162,-11.53339 -2.39943,-25.31497 -1.19781,-13.78157 -2.54597,-25.96452 -2.99587,-27.07326 -0.55777,-1.37452 -3.15098,-2.76721 -8.15134,-4.3777 -4.03334,-1.29901 -10.91488,-3.89479 -15.29227,-5.76842 l -7.95887,-3.40653 -4.1325,3.48909 c -2.27288,1.919 -11.34303,10.20161 -20.15589,18.40577 l -16.02338,14.91665 -11.20674,-7.46377 -11.20674,-7.4638 2.33942,-6.16459 c 1.28668,-3.39054 2.65094,-6.95394 3.03165,-7.91865 0.76839,-1.94692 -0.8731,-2.23555 -6.41299,-1.12758 l -3.13218,0.62643 0,78.55499 0,78.55499 5.2682,0 c 2.89751,0 10.90335,-0.66185 17.79077,-1.4708 z M 424.8789,343.89681 c -0.36751,-0.36751 -0.6682,-2.39716 -0.6682,-4.51034 l 0,-3.84213 7.01607,0 7.01608,0 0,4.51033 0,4.51034 -6.34788,0 c -3.49136,0 -6.6486,-0.30069 -7.01607,-0.6682 z m 25.05741,0 c -0.36751,-0.36751 -0.6682,-2.39716 -0.6682,-4.51034 l 0,-3.84213 7.01608,0 7.01607,0 0,4.51033 0,4.51034 -6.34787,0 c -3.49134,0 -6.64857,-0.30069 -7.01608,-0.6682 z m 25.05741,0 c -0.36751,-0.36751 -0.6682,-2.39716 -0.6682,-4.51034 l 0,-3.84213 7.01608,0 7.01608,0 0,4.51033 0,4.51034 -6.34788,0 c -3.49133,0 -6.64857,-0.30069 -7.01608,-0.6682 z m 25.05742,0 c -0.36751,-0.36751 -0.6682,-2.39716 -0.6682,-4.51034 l 0,-3.84213 7.01607,0 7.01608,0 0,4.51033 0,4.51034 -6.34788,0 c -3.49133,0 -6.64857,-0.30069 -7.01607,-0.6682 z m 25.05741,0 c -0.36751,-0.36751 -0.6682,-2.39716 -0.6682,-4.51034 l 0,-3.84213 7.01608,0 7.01607,0 0,4.51033 0,4.51034 -6.34788,0 c -3.49133,0 -6.64856,-0.30069 -7.01607,-0.6682 z m 25.05741,0 c -0.36751,-0.36751 -0.6682,-2.39716 -0.6682,-4.51034 l 0,-3.84213 7.01608,0 7.01607,0 0,4.51033 0,4.51034 -6.34787,0 c -3.49134,0 -6.64857,-0.30069 -7.01608,-0.6682 z M 531.2566,473.61068 c 9.70985,-14.48021 26.5328,-47.9205 24.91923,-49.53403 -0.2783,-0.2783 -4.48798,1.0599 -9.35513,2.97355 -4.86716,1.91362 -10.34227,3.79904 -12.16691,4.1898 -2.08792,0.44716 -3.60747,1.51197 -4.09966,2.87282 -0.43016,1.18925 -1.56168,11.4085 -2.51453,22.7094 -0.95282,11.30089 -1.95732,21.33638 -2.23225,22.30109 -0.93668,3.28724 0.57148,1.76151 5.44925,-5.51263 z M 342.76502,416.20535 c 27.58714,-6.37955 51.14916,-29.46468 58.51838,-57.3339 2.71749,-10.27721 2.90355,-26.99652 0.41014,-36.85812 C 392.58283,285.97971 361.39297,261.29 324.98331,261.29 c -36.45145,0 -67.58903,24.64831 -76.7102,60.72333 -2.49064,9.85061 -2.30718,26.58178 0.40383,36.83337 3.91564,14.80689 11.29237,26.98115 23.09505,38.11519 19.22922,18.1399 45.25689,25.19497 70.99303,19.24346 z M 531.76366,200.15031 c -8.85712,-15.11937 -33.62831,-42.45186 -51.37882,-56.69132 -12.41334,-9.95799 -26.2159,-19.39922 -28.36061,-19.39922 -4.07213,0 -20.46332,5.65513 -30.37119,10.47834 -19.6825,9.58166 -37.15159,24.58433 -49.26602,42.31028 -5.59625,8.1885 -11.13828,18.13395 -13.3573,23.97036 l -0.92101,2.42245 87.73282,0 87.73282,0 -1.81069,-3.09089 z m 168.74678,143.7465 c -0.36751,-0.36751 -0.6682,-2.39716 -0.6682,-4.51034 l 0,-3.84213 7.01608,0 7.01607,0 0,4.51033 0,4.51034 -6.34787,0 c -3.49134,0 -6.64857,-0.30069 -7.01608,-0.6682 z"
       id="path3824" />
    <path
       style="fill:#010101"
       d="m 319.97183,698.52298 0,-46.25294 -6.26436,-0.003 c -24.74616,-0.0134 -65.49713,-7.38479 -92.31829,-16.69899 C 189.7113,624.56676 156.29858,606.54707 130.32841,586.45798 80.131257,547.62818 42.075295,492.99152 22.474885,431.61349 13.546828,403.65546 9.3492106,378.27257 8.5470059,347.39155 l -0.56446,-21.72972 15.0882381,0.57986 15.088237,0.57989 0.539603,-4.40873 c 0.29668,-2.42479 1.032299,-9.37007 1.634445,-15.43396 3.438946,-34.63068 16.130894,-74.53047 33.761791,-106.13722 6.91755,-12.40099 18.948115,-30.29706 28.03373,-41.70152 8.68938,-10.90709 31.44191,-33.67182 42.44135,-42.46406 44.39605,-35.487314 99.88312,-57.982422 153.81519,-62.358449 l 8.75069,-0.710027 -0.67375,-14.638173 c -0.37055,-8.05098 -0.91449,-15.487018 -1.20873,-16.524462 -0.51629,-1.820337 0.33667,-1.868414 24.38136,-1.374482 29.38834,0.603683 46.07414,2.753475 72.02433,9.279628 37.97778,9.550917 73.84266,26.132978 105.74228,48.889719 50.01874,35.682696 91.05256,88.937046 112.15043,145.550726 39.18452,105.14715 20.86989,220.81338 -48.96018,309.20848 -10.73499,13.589 -37.70258,40.32874 -51.16269,50.7304 -53.27594,41.17043 -113.66751,63.91321 -178.41854,67.19035 l -13.02013,0.65898 0,41.9421 0,41.94207 9.77239,-0.003 c 29.56852,-0.01 74.68379,-7.73105 108.65786,-18.59484 101.74884,-32.53642 187.37489,-104.8778 236.01905,-199.40165 27.05506,-52.57256 40.87205,-103.50395 44.93302,-165.6295 0.39985,-6.11701 0.25291,-9.27124 -0.43226,-9.27124 -1.56482,0 -1.24642,-6.95116 0.39354,-8.59112 0.78754,-0.7875 3.0427,-1.43185 5.01148,-1.43185 l 3.57964,0 -0.003,6.76551 c -0.007,10.84057 -1.87079,33.61355 -4.08202,49.86425 -9.9781,73.33092 -39.36994,141.44706 -86.71369,200.96045 -13.17993,16.56783 -45.69921,49.23738 -62.05044,62.33716 -70.35243,56.36295 -155.34072,88.24282 -241.80403,90.70283 l -21.2988,0.60602 0,-46.25298 z m -0.24456,-192.22119 0.25658,-79.28817 -5.93389,-0.67137 c -15.05657,-1.70344 -32.37976,-9.15919 -44.48944,-19.14781 -31.65326,-26.10906 -40.96282,-71.41263 -22.13836,-107.73278 15.03175,-29.00238 44.84171,-47.10793 77.56115,-47.10793 48.55956,0 87.25646,38.85309 87.18663,87.53854 -0.0234,17.03065 -5.73741,35.78135 -15.00688,49.25402 -9.11569,13.24922 -24.51096,25.62578 -39.12017,31.44946 -8.05549,3.21119 -20.73681,6.15757 -26.50239,6.15757 l -3.5503,0 0,79.64485 0,79.64486 6.7655,-0.50957 c 35.97075,-2.70924 63.4011,-9.32487 92.13611,-22.22125 46.50923,-20.87356 87.43467,-58.23262 113.36181,-103.4831 40.86426,-71.32015 43.37465,-159.69457 6.63353,-233.52557 -13.44177,-27.01109 -26.8562,-45.63657 -48.08591,-66.76555 -34.64856,-34.48414 -79.55949,-58.3099 -127.26677,-67.51646 -14.99773,-2.894265 -42.26357,-5.353098 -53.21292,-4.798762 l -9.16751,0.464131 -0.72382,-13.01295 -0.7238,-13.012949 -8.65115,0.69566 c -12.58056,1.011618 -29.8091,4.113693 -44.99871,8.102198 C 185.3603,88.497289 125.55584,132.87691 87.872327,193.78069 c -17.949393,29.00967 -30.789881,62.64944 -36.895737,96.6603 -2.514796,14.00777 -4.75406,34.78083 -3.916608,36.33325 0.222844,0.41345 6.397158,0.75173 13.720337,0.75173 l 13.314808,0 0.628206,15.95689 c 1.047166,26.59808 4.776377,47.38013 12.874064,71.74405 11.570177,34.81173 30.673313,66.52245 56.148053,93.20436 36.97214,38.72416 84.68727,64.19011 137.90942,73.60341 10.77442,1.90566 32.00713,4.06107 36.31236,3.68621 1.3203,-0.11493 1.53472,-9.7913 1.76004,-79.4191 z M 425.213,339.55352 l 0,-4.00918 6.01377,0 6.01378,0 0,4.00918 0,4.00919 -6.01378,0 -6.01377,0 0,-4.00919 z m 25.05741,0 0,-4.00918 6.01378,0 6.01378,0 0,4.00918 0,4.00919 -6.01378,0 -6.01378,0 0,-4.00919 z m 25.05741,0 0,-4.00918 6.01378,0 6.01378,0 0,4.00918 0,4.00919 -6.01378,0 -6.01378,0 0,-4.00919 z m 25.05741,0 0,-4.00918 6.01378,0 6.01378,0 0,4.00918 0,4.00919 -6.01378,0 -6.01378,0 0,-4.00919 z m 25.05742,0 0,-4.00918 6.01378,0 6.01378,0 0,4.00918 0,4.00919 -6.01378,0 -6.01378,0 0,-4.00919 z m 25.05741,0 0,-4.00918 6.01378,0 6.01378,0 0,4.00918 0,4.00919 -6.01378,0 -6.01378,0 0,-4.00919 z m -201.68194,75.39251 c 43.75933,-14.27667 66.50288,-61.87714 49.7533,-104.12978 -9.18261,-23.16408 -28.64731,-40.58773 -53.24229,-47.65934 -11.10124,-3.19188 -29.5904,-3.19188 -40.6916,0 -36.68693,10.5483 -60.45826,43.3823 -58.57548,80.90695 0.96922,19.31719 8.96674,36.96199 23.20784,51.20308 16.5265,16.5265 34.82292,23.77829 58.21916,23.07521 10.04021,-0.30169 13.56448,-0.86288 21.32907,-3.39612 z m 301.91159,-75.39251 0,-4.00918 6.51493,0 6.51493,0 0,4.00918 0,4.00919 -6.51493,0 -6.51493,0 0,-4.00919 z m 25.05742,0 0,-4.00918 6.01377,0 6.01378,0 0,4.00918 0,4.00919 -6.01378,0 -6.01377,0 0,-4.00919 z m 25.05741,0 0,-4.00918 6.01378,0 6.01378,0 0,4.00918 0,4.00919 -6.01378,0 -6.01378,0 0,-4.00919 z"
       id="path3822" />
  </g>
</svg>
